# xmcd
#
# Track frame offsets:
#	150
#	19233
#	41717
#	67968
#	82309
#	112146
#	131601
#	143264
#	158326
#	188551
#	208641
#	216583
#	243773
#
# Disc length: 3329 seconds
#
# Revision: 1
# Processed by: cddbd v1.5.2PL0 Copyright (c) Steve Scherf et al.
# Submitted via: audiograbber 1.83.01
#
DISCID=b40cff0d
DTITLE=Pura Fe - Tuscarora Nation Blues
DYEAR=2006
DGENRE=Blues
TTITLE0=Wait Till You Come Back Again
TTITLE1=Whole World Down On Me
TTITLE2=You Still Take
TTITLE3=Robin Dance
TTITLE4=Della Blackman-Pick And Choose
TTITLE5=Sweet Willie
TTITLE6=Going Home
TTITLE7=Stomp Dance
TTITLE8=Follow Your Heart's Desire
TTITLE9=Find The Cost Of Freedom
TTITLE10=Skaroora Shuffle
TTITLE11=Rise Up Tuscarora Nation
TTITLE12=Pigeon Dance
EXTD=
EXTT0=
EXTT1=
EXTT2=
EXTT3=
EXTT4=
EXTT5=
EXTT6=
EXTT7=
EXTT8=
EXTT9=
EXTT10=
EXTT11=
EXTT12=
PLAYORDER=
